# xmcd CD database file
# Copyright (C) 1996 Ti Kan
#
# Track frame offsets:
#  150
#  10767
#  24757
#  44917
#  63222
#  79082
#  88615
#  106432
#  118360
#  126492
#  138632
#  162412
#  184085
#  196435
#
# Disc length: 2829 seconds
#
# Revision: 1
# Processed by: cddbd v1.4b41PL1 Copyright (c) Steve Scherf et al.
# Submitted via: CDWizzard Release:4.13
#
DISCID=c60b0b0e
DTITLE=Sally Rogers - We'll Pass Them On
DYEAR=1900
DGENRE=
TTITLE0=Across the Blue Mountains
TTITLE1=Le Bouvier
TTITLE2=Virginia's Alders
TTITLE3=Home Again
TTITLE4=There Is No Place
TTITLE5=Gone to the Dogs
TTITLE6=In the Name of Our Children
TTITLE7=Mother Courage
TTITLE8=A Dozen Years
TTITLE9=Black Is the Color
TTITLE10=My Little Doney Gal/The Cuckoo
TTITLE11=Black Jack Davey
TTITLE12=Hard Work
TTITLE13=We'll Pass Them On
EXTD=
EXTT0=
EXTT1=
EXTT2=
EXTT3=
EXTT4=
EXTT5=
EXTT6=
EXTT7=
EXTT8=
EXTT9=
EXTT10=
EXTT11=
EXTT12=
EXTT13=
PLAYORDER=
